<svg id="qa" data-name="qa" xmlns="http://www.w3.org/2000/svg" viewBox="0 0 96.5 48"><defs><style>.cls-1{fill:#ea4e34;}.cls-2{fill:#2539f4;}.cls-3{fill:#9ba4b2;}.cls-4{fill:#b6c6e0;}.cls-5{fill:#5b637c;}.cls-6{fill:#d6eafa;}.cls-7{fill:#fff;}</style></defs><polygon class="cls-1" points="91.73 31.25 84.42 23.95 82.14 21.69 77.2 16.75 69.88 9.46 67.61 7.2 62.67 2.27 60.4 0 59.26 1.13 58.12 0 50.91 7.2 44.73 13.36 38.55 7.2 33.61 2.27 31.34 0 30.2 1.13 29.06 0 21.85 7.2 14.53 14.49 7.32 21.69 0 28.98 2.27 31.25 4.54 33.51 4.54 33.51 7.32 36.27 9.59 38.54 11.76 40.71 11.86 40.8 19.07 48 26.29 40.8 33.61 33.51 36.38 36.27 38.65 38.54 40.82 40.71 40.92 40.8 48.14 48 55.35 40.8 55.45 40.71 62.67 33.51 65.34 36.18 65.44 36.27 67.71 38.54 69.88 40.71 69.98 40.8 77.2 48 84.42 40.8 84.51 40.71 91.73 33.51 90.59 32.38 91.73 31.25"/><polygon class="cls-2" points="96.5 31.25 89.19 23.95 86.91 21.69 81.97 16.75 74.65 9.46 72.38 7.2 67.44 2.27 65.17 0 64.03 1.13 62.89 0 55.68 7.2 49.5 13.36 43.32 7.2 38.38 2.27 36.1 0 34.97 1.13 33.83 0 26.62 7.2 19.3 14.49 12.09 21.69 4.77 28.98 7.04 31.25 9.31 33.51 9.31 33.51 12.09 36.27 14.36 38.54 16.53 40.71 16.63 40.8 23.85 48 31.06 40.8 38.38 33.51 41.15 36.27 43.42 38.54 45.59 40.71 45.69 40.8 52.91 48 60.13 40.8 60.22 40.71 67.44 33.51 70.11 36.18 70.21 36.27 72.48 38.54 74.65 40.71 74.75 40.8 81.97 48 89.19 40.8 89.28 40.71 96.5 33.51 95.36 32.38 96.5 31.25"/><polygon class="cls-3" points="26.87 39.23 19.55 31.94 26.87 24.65 34.18 31.94 26.87 39.23"/><polygon class="cls-4" points="19.65 31.84 12.43 24.65 19.65 17.45 26.87 24.65 19.65 31.84"/><polygon class="cls-3" points="12.43 39.23 5.12 31.94 12.43 24.65 19.75 31.94 12.43 39.23"/><polygon class="cls-5" points="19.65 46.43 12.34 39.14 19.65 31.84 26.96 39.14 19.65 46.43"/><polygon class="cls-6" points="41.4 24.74 34.08 17.45 41.4 10.16 48.71 17.45 41.4 24.74"/><polygon class="cls-7" points="34.18 17.35 26.96 10.16 34.18 2.96 41.4 10.16 34.18 17.35"/><polygon class="cls-6" points="26.96 24.74 19.65 17.45 26.96 10.16 34.28 17.45 26.96 24.74"/><polygon class="cls-4" points="34.18 31.94 26.87 24.65 34.18 17.35 41.5 24.65 34.18 31.94"/><polygon class="cls-3" points="70.56 39.23 77.87 31.94 70.56 24.65 63.24 31.94 70.56 39.23"/><polygon class="cls-4" points="77.77 31.84 84.99 24.65 77.77 17.45 70.56 24.65 77.77 31.84"/><polygon class="cls-3" points="84.99 39.23 92.31 31.94 84.99 24.65 77.68 31.94 84.99 39.23"/><polygon class="cls-5" points="77.77 46.43 85.09 39.14 77.77 31.84 70.46 39.14 77.77 46.43"/><polygon class="cls-6" points="56.02 24.74 63.34 17.45 56.02 10.16 48.71 17.45 56.02 24.74"/><polygon class="cls-7" points="63.24 17.35 70.46 10.16 63.24 2.96 56.02 10.16 63.24 17.35"/><polygon class="cls-6" points="70.46 24.74 77.77 17.45 70.46 10.16 63.15 17.45 70.46 24.74"/><polygon class="cls-4" points="63.24 31.94 70.56 24.65 63.24 17.35 55.93 24.65 63.24 31.94"/><polygon class="cls-3" points="41.5 39.23 48.81 31.94 41.5 24.65 34.18 31.94 41.5 39.23"/><polygon class="cls-4" points="48.71 31.84 55.93 24.65 48.71 17.45 41.5 24.65 48.71 31.84"/><polygon class="cls-3" points="55.93 39.23 63.24 31.94 55.93 24.65 48.62 31.94 55.93 39.23"/><polygon class="cls-5" points="48.71 46.43 56.03 39.14 48.71 31.84 41.4 39.14 48.71 46.43"/></svg>