<svg id="qa" data-name="qa" xmlns="http://www.w3.org/2000/svg" viewBox="0 0 274 48"><defs><style>.cls-1{fill:#fff;}.cls-2{fill:#ea4e34;}.cls-3{fill:#2539f4;}.cls-4{fill:#9ba4b2;}.cls-5{fill:#b6c6e0;}.cls-6{fill:#5b637c;}.cls-7{fill:#d6eafa;}</style></defs><path class="cls-1" d="M152.54,34.3a6.91,6.91,0,0,0-1.34-2,6.78,6.78,0,0,0-2.13-1.49,6.89,6.89,0,0,0-2.9-.59h-4.42a6.67,6.67,0,0,0-2.52.51,7.43,7.43,0,0,0-2.2,1.4,7.13,7.13,0,0,0-1.54,2,5.55,5.55,0,0,0-.59,2.51v5.1a5.74,5.74,0,0,0,.55,2.52,6,6,0,0,0,1.5,2,7.07,7.07,0,0,0,2.18,1.29,7.34,7.34,0,0,0,2.66.48h10.53V43.34H142.8a3.33,3.33,0,0,1-1.8-.42,1.37,1.37,0,0,1-.55-1.27v-.4H153V36.51a5.62,5.62,0,0,0-.48-2.21Zm-11.87,2.21a2.73,2.73,0,0,1,.47-.8,2.21,2.21,0,0,1,.71-.52,2,2,0,0,1,.91-.2h2.4a2.22,2.22,0,0,1,1.74.68,2.47,2.47,0,0,1,.64,1.48h-7A2.31,2.31,0,0,1,140.67,36.51Zm23.69-6.31H168V35h-3.64v13h-5.55V35h-3.65V30.2h3.65V24.53h5.55ZM274,30.2V35h-3.65v13H264.8V35h-3.65V30.2h3.65V24.53h5.55V30.2ZM125.38,24.57h6.41V47.93H127V35.8c-.4,1.51-.81,3-1.22,4.52-.67,2.4-1.31,4.84-1.9,7.25l-.09.36-5,0-3-12.17V47.93H111V24.57h6.41l4,15.25q.89-3.41,1.78-6.81,1.06-4,2.12-8.08Zm75.74,17.19h5.54l-.08.56a6.13,6.13,0,0,1-2.36,4.1A8.31,8.31,0,0,1,199,47.93h-1.59a10.51,10.51,0,0,1-3.17-.45,6.77,6.77,0,0,1-2.46-1.33,6.29,6.29,0,0,1-1.58-2.1,6.45,6.45,0,0,1-.57-2.73V36.81a6.4,6.4,0,0,1,.57-2.74A6.12,6.12,0,0,1,191.81,32a7.28,7.28,0,0,1,2.45-1.32,10.26,10.26,0,0,1,3.18-.47H199a8.4,8.4,0,0,1,5.27,1.52,5.91,5.91,0,0,1,2.28,4.21l.06.54h-5.48l-.1-.34a1.52,1.52,0,0,0-.66-.85A2.46,2.46,0,0,0,199,35h-1.59a2.53,2.53,0,0,0-1.72.56h0a1.71,1.71,0,0,0-.62,1.39v4.28a1.76,1.76,0,0,0,.62,1.41,2.51,2.51,0,0,0,1.72.58H199a2.64,2.64,0,0,0,1.35-.32,1.24,1.24,0,0,0,.63-.75Zm-14.44-7.62a5.75,5.75,0,0,0-1.4-2A6.83,6.83,0,0,0,183,30.72a9.23,9.23,0,0,0-3.21-.52h-2.33a9.55,9.55,0,0,0-3.11.47A7,7,0,0,0,172,31.93a5.59,5.59,0,0,0-1.43,1.84,6.75,6.75,0,0,0-.6,2.16l-.06.54h5.4l.11-.35a1.44,1.44,0,0,1,.67-.88,4,4,0,0,1,2-.32h1a5,5,0,0,1,1.51.19,1.64,1.64,0,0,1,.72.43,1.61,1.61,0,0,1,.32.67,4.39,4.39,0,0,1,.1.84h-6.15a6.75,6.75,0,0,0-2.4.41,5.46,5.46,0,0,0-1.82,1.13,4.85,4.85,0,0,0-1.12,1.7,5.79,5.79,0,0,0-.38,2.09,6.33,6.33,0,0,0,.36,2.14,4.69,4.69,0,0,0,1.12,1.77,5.58,5.58,0,0,0,1.85,1.2,6.63,6.63,0,0,0,2.47.44h11.51V36.41a6.09,6.09,0,0,0-.46-2.27Zm-10.89,9.43a.75.75,0,0,1-.57-.27,1.68,1.68,0,0,1,0-1.84.73.73,0,0,1,.56-.28h5.92v2.39Zm81.35-19H259V29h-1.88a2.72,2.72,0,0,0-1.82.57,1.74,1.74,0,0,0-.65,1.41v.24H259V36h-4.35V48h-5V36h-3.54V31.25h3.54v-.07a7,7,0,0,1,.5-2.74,5.58,5.58,0,0,1,1.51-2.11A7.27,7.27,0,0,1,254,25,9.72,9.72,0,0,1,257.14,24.53Zm-34.39,6h1v5h-1A8.58,8.58,0,0,0,220,36a11,11,0,0,0-2.59,1.2,7.28,7.28,0,0,0-1.86,1.62,2.61,2.61,0,0,0-.65,1.61v7.46h-5.79V30.07h5.79v2.81a6.44,6.44,0,0,1,.71-.51,10.06,10.06,0,0,1,2.11-1,13.62,13.62,0,0,1,2.44-.62A17,17,0,0,1,222.75,30.53ZM243,34.14a5.86,5.86,0,0,0-1.39-2,7,7,0,0,0-2.32-1.41,9.29,9.29,0,0,0-3.22-.52h-2.33a9.59,9.59,0,0,0-3.11.47,7.19,7.19,0,0,0-2.29,1.26,5.43,5.43,0,0,0-1.42,1.84,7,7,0,0,0-.61,2.16l-.06.54h5.41l.1-.35a1.44,1.44,0,0,1,.67-.88,4.07,4.07,0,0,1,2-.32h1a5,5,0,0,1,1.51.19,1.58,1.58,0,0,1,.72.43,1.51,1.51,0,0,1,.33.67,4.39,4.39,0,0,1,.1.84h-6.15a6.85,6.85,0,0,0-2.41.41,5.31,5.31,0,0,0-1.81,1.13,4.59,4.59,0,0,0-1.12,1.7,5.59,5.59,0,0,0-.39,2.09,6.58,6.58,0,0,0,.36,2.14,4.71,4.71,0,0,0,1.13,1.77,5.44,5.44,0,0,0,1.84,1.2,6.68,6.68,0,0,0,2.48.44h11.5V36.41a5.9,5.9,0,0,0-.46-2.27ZM232.1,43.57a.75.75,0,0,1-.56-.27,1.26,1.26,0,0,1-.27-.92,1.31,1.31,0,0,1,.27-.92.74.74,0,0,1,.56-.28H238v2.39Z"/><polygon class="cls-2" points="91.61 31.25 84.3 23.95 82.03 21.69 77.1 16.75 69.79 9.46 67.52 7.2 62.58 2.27 60.31 0 59.18 1.13 58.05 0 50.84 7.2 44.67 13.36 38.5 7.2 33.56 2.27 31.29 0 30.16 1.13 29.02 0 21.82 7.2 14.51 14.49 7.3 21.69 0 28.98 2.27 31.25 4.54 33.51 4.54 33.51 7.3 36.27 9.57 38.54 11.74 40.71 11.84 40.8 19.05 48 26.26 40.8 33.56 33.51 36.33 36.27 38.6 38.54 40.77 40.71 40.87 40.8 48.07 48 55.28 40.8 55.38 40.71 62.59 33.51 65.25 36.18 65.35 36.27 67.62 38.54 69.79 40.71 69.89 40.8 77.1 48 84.3 40.8 84.4 40.71 91.61 33.51 90.47 32.38 91.61 31.25"/><polygon class="cls-3" points="96.37 31.25 89.07 23.95 86.8 21.69 81.86 16.75 74.56 9.46 72.29 7.2 67.35 2.27 65.08 0 63.95 1.13 62.81 0 55.6 7.2 49.43 13.36 43.27 7.2 38.33 2.27 36.06 0 34.92 1.13 33.79 0 26.58 7.2 19.28 14.49 12.07 21.69 4.76 28.98 7.03 31.25 9.3 33.51 9.3 33.51 12.07 36.27 14.34 38.54 16.51 40.71 16.61 40.8 23.81 48 31.02 40.8 38.33 33.51 41.09 36.27 43.36 38.54 45.53 40.71 45.63 40.8 52.84 48 60.05 40.8 60.14 40.71 67.35 33.51 70.02 36.18 70.11 36.27 72.38 38.54 74.56 40.71 74.65 40.8 81.86 48 89.07 40.8 89.17 40.71 96.37 33.51 95.24 32.38 96.37 31.25"/><polygon class="cls-4" points="26.83 39.23 19.53 31.94 26.83 24.65 34.14 31.94 26.83 39.23"/><polygon class="cls-5" points="19.63 31.84 12.42 24.65 19.63 17.45 26.83 24.65 19.63 31.84"/><polygon class="cls-4" points="12.42 39.23 5.11 31.94 12.42 24.65 19.72 31.94 12.42 39.23"/><polygon class="cls-6" points="19.63 46.43 12.32 39.14 19.63 31.84 26.93 39.14 19.63 46.43"/><polygon class="cls-7" points="41.34 24.74 34.04 17.45 41.34 10.16 48.65 17.45 41.34 24.74"/><polygon class="cls-1" points="34.14 17.35 26.93 10.16 34.14 2.96 41.34 10.16 34.14 17.35"/><polygon class="cls-7" points="26.93 24.74 19.63 17.45 26.93 10.16 34.23 17.45 26.93 24.74"/><polygon class="cls-5" points="34.14 31.94 26.83 24.65 34.14 17.35 41.44 24.65 34.14 31.94"/><polygon class="cls-4" points="70.46 39.23 77.77 31.94 70.46 24.65 63.16 31.94 70.46 39.23"/><polygon class="cls-5" points="77.67 31.84 84.88 24.65 77.67 17.45 70.46 24.65 77.67 31.84"/><polygon class="cls-4" points="84.88 39.23 92.18 31.94 84.88 24.65 77.57 31.94 84.88 39.23"/><polygon class="cls-6" points="77.67 46.43 84.98 39.14 77.67 31.84 70.37 39.14 77.67 46.43"/><polygon class="cls-7" points="55.95 24.74 63.26 17.45 55.95 10.16 48.65 17.45 55.95 24.74"/><polygon class="cls-1" points="63.16 17.35 70.37 10.16 63.16 2.96 55.95 10.16 63.16 17.35"/><polygon class="cls-7" points="70.37 24.74 77.67 17.45 70.37 10.16 63.06 17.45 70.37 24.74"/><polygon class="cls-5" points="63.16 31.94 70.46 24.65 63.16 17.35 55.85 24.65 63.16 31.94"/><polygon class="cls-4" points="41.44 39.23 48.75 31.94 41.44 24.65 34.14 31.94 41.44 39.23"/><polygon class="cls-5" points="48.65 31.84 55.86 24.65 48.65 17.45 41.44 24.65 48.65 31.84"/><polygon class="cls-4" points="55.86 39.23 63.16 31.94 55.86 24.65 48.55 31.94 55.86 39.23"/><polygon class="cls-6" points="48.65 46.43 55.95 39.14 48.65 31.84 41.34 39.14 48.65 46.43"/></svg>